<?xml version="1.0" standalone="no"?>
<!DOCTYPE svg PUBLIC "-//W3C//DTD SVG 20010904//EN"
 "http://www.w3.org/TR/2001/REC-SVG-20010904/DTD/svg10.dtd">
<svg version="1.0" xmlns="http://www.w3.org/2000/svg"
 width="330.000000pt" height="357.000000pt" viewBox="0 0 330.000000 357.000000"
 preserveAspectRatio="xMidYMid meet">

<g transform="translate(0.000000,357.000000) scale(0.100000,-0.100000)"
fill="#000000" stroke="none">
<path d="M1123 3220 c-335 -35 -618 -241 -781 -566 -91 -180 -133 -383 -133
-639 0 -549 216 -934 618 -1101 98 -41 262 -73 376 -74 56 0 58 1 52 23 -9 29
-33 47 -65 47 -97 0 -248 71 -346 163 -150 139 -239 326 -290 603 -26 139 -26
553 -1 699 70 404 244 674 492 767 86 32 296 32 405 1 195 -56 310 -142 406
-301 38 -63 64 -143 89 -272 8 -47 18 -95 21 -107 3 -19 11 -23 39 -23 l35 0
0 188 c0 104 3 271 7 370 l6 182 -36 0 c-29 0 -37 -4 -37 -18 0 -35 -31 -137
-48 -155 -24 -27 -59 -16 -153 48 -216 148 -393 192 -656 165z"/>
<path d="M820 1826 c0 -19 7 -25 36 -30 23 -5 50 -22 77 -49 40 -40 48 -59
177 -442 l135 -400 65 2 c36 2 89 8 119 14 56 12 70 5 71 -32 0 -18 -60 -34
-168 -45 -39 -4 -62 -11 -60 -18 2 -6 61 -185 133 -398 116 -346 132 -388 151
-388 15 0 24 9 31 33 156 499 304 989 299 994 -3 3 -18 1 -32 -6 -23 -10 -26
-10 -20 4 14 38 116 367 116 376 0 6 -4 7 -10 4 -5 -3 -10 -15 -10 -25 0 -10
-11 -54 -25 -98 -39 -123 -118 -231 -222 -303 -43 -30 -160 -79 -188 -79 -10
0 -49 105 -128 348 -63 191 -118 366 -122 390 -12 75 18 115 95 124 17 2 26
10 28 26 l3 22 -275 0 -276 0 0 -24z m964 -923 c-24 -76 -65 -207 -91 -291
-26 -84 -50 -149 -54 -145 -3 5 -36 97 -72 205 l-65 197 101 50 c56 27 127 65
157 85 30 19 58 36 62 36 3 0 -14 -62 -38 -137z"/>
<path d="M1740 1827 c0 -17 9 -26 36 -36 49 -18 84 -71 123 -187 19 -54 37
-103 41 -107 4 -5 11 22 14 60 10 99 12 103 52 103 l34 0 -1 -237 -1 -238 -28
80 c-16 46 -30 74 -33 65 -11 -28 -77 -246 -77 -253 0 -4 7 -7 15 -7 24 0 45
-43 57 -114 l11 -66 34 0 35 0 -4 134 c-1 74 -1 133 1 131 2 -2 87 -253 190
-557 164 -488 189 -553 208 -556 14 -2 23 3 27 15 93 315 494 1579 511 1612
28 55 65 91 123 121 27 14 42 29 42 41 0 18 -11 19 -240 19 l-240 0 0 -25 c0
-22 4 -25 38 -25 63 0 131 -28 154 -64 16 -26 19 -44 15 -116 -4 -76 -22 -139
-172 -610 -92 -289 -170 -531 -174 -538 -8 -14 -374 1107 -391 1195 -15 83 7
119 79 128 81 11 91 14 91 35 0 19 -8 20 -285 20 l-285 0 0 -23z"/>
</g>
</svg>
